<svg width="830" height="70" viewBox="0 0 830 70" fill="none" xmlns="http://www.w3.org/2000/svg">
<path d="M80 70V0H150V10H100V30H140V40H100V70H80Z" fill="white"/>
<path d="M0 70V0H20V10H30V20H40V10H50V0H70V70H50V30H40V50H30V30H20V70H0Z" fill="white"/>
<path d="M760 70V50H770V40H780V30H790V20H800V10H760V0H830V20H820V30H810V40H800V50H790V60H830V70H760Z" fill="white"/>
<path d="M690 70V60H710V10H690V0H750V10H730V60H750V70H690Z" fill="white"/>
<path d="M600 70V20H610V10H620V0H650V10H660V20H670V70H650V50H620V70H600ZM620 40H650V20H640V10H630V20H620V40Z" fill="white"/>
<path d="M520 70V0H590V10H540V30H580V40H540V70H520Z" fill="white"/>
<path d="M440 70V0H490V10H500V20H510V50H500V60H490V70H440ZM460 60H480V50H490V20H480V10H460V60Z" fill="white"/>
<path d="M360 70V0H380V30H410V0H430V70H410V40H380V70H360Z" fill="white"/>
<path d="M290 70V60H280V10H290V0H340V10H350V60H340V70H290ZM300 60H330V10H300V60Z" fill="white"/>
<path d="M200 70V0H220V10H230V20H240V10H250V0H270V70H250V30H240V50H230V30H220V70H200Z" fill="white"/>
</svg>
